<?xml version="1.0" encoding="iso-8859-1"?>
<!-- Generator: Adobe Illustrator 19.0.0, SVG Export Plug-In . SVG Version: 6.00 Build 0)  -->
<svg version="1.1" id="Layer_1" xmlns="http://www.w3.org/2000/svg" xmlns:xlink="http://www.w3.org/1999/xlink" x="0px" y="0px"
	 viewBox="0 0 512 512" style="enable-background:new 0 0 512 512;" xml:space="preserve">
<g>
	<polygon style="fill:#556080;" points="105.931,512 406.069,512 406.069,0 105.931,0 	"/>
	<path style="fill:#343B4C;" d="M326.621,406.069c0,39-31.62,70.621-70.621,70.621s-70.621-31.62-70.621-70.621
		S217,335.448,256,335.448S326.621,367.069,326.621,406.069"/>
	<path style="fill:#232833;" d="M291.31,406.069c0,19.5-15.81,35.31-35.31,35.31s-35.31-15.81-35.31-35.31
		c0-19.5,15.81-35.31,35.31-35.31S291.31,386.569,291.31,406.069"/>
	<path style="fill:#343B4C;" d="M326.621,229.517c0,39-31.62,70.621-70.621,70.621s-70.621-31.62-70.621-70.621
		S217,158.897,256,158.897S326.621,190.517,326.621,229.517"/>
	<path style="fill:#232833;" d="M291.31,229.517c0,19.5-15.81,35.31-35.31,35.31s-35.31-15.81-35.31-35.31s15.81-35.31,35.31-35.31
		S291.31,210.017,291.31,229.517"/>
	<g>
		<path style="fill:#343B4C;" d="M150.069,476.69c0,4.873-3.955,8.828-8.828,8.828s-8.828-3.955-8.828-8.828
			c0-4.873,3.955-8.828,8.828-8.828S150.069,471.817,150.069,476.69"/>
		<path style="fill:#343B4C;" d="M379.586,476.69c0,4.873-3.955,8.828-8.828,8.828c-4.873,0-8.828-3.955-8.828-8.828
			c0-4.873,3.955-8.828,8.828-8.828C375.631,467.862,379.586,471.817,379.586,476.69"/>
		<path style="fill:#343B4C;" d="M379.586,35.31c0,4.873-3.955,8.828-8.828,8.828c-4.873,0-8.828-3.955-8.828-8.828
			s3.955-8.828,8.828-8.828C375.631,26.483,379.586,30.438,379.586,35.31"/>
	</g>
	<g>
		<path style="fill:#F3D55B;" d="M264.828,406.069c0,4.873-3.955,8.828-8.828,8.828s-8.828-3.955-8.828-8.828
			s3.955-8.828,8.828-8.828S264.828,401.196,264.828,406.069"/>
		<path style="fill:#F3D55B;" d="M264.828,229.517c0,4.873-3.955,8.828-8.828,8.828s-8.828-3.955-8.828-8.828
			s3.955-8.828,8.828-8.828S264.828,224.644,264.828,229.517"/>
	</g>
	<g>
		<path style="fill:#343B4C;" d="M150.069,35.31c0,4.873-3.955,8.828-8.828,8.828s-8.828-3.955-8.828-8.828s3.955-8.828,8.828-8.828
			S150.069,30.438,150.069,35.31"/>
		<path style="fill:#343B4C;" d="M291.31,79.448c0,19.5-15.81,35.31-35.31,35.31s-35.31-15.81-35.31-35.31s15.81-35.31,35.31-35.31
			S291.31,59.948,291.31,79.448"/>
	</g>
</g>
<g>
</g>
<g>
</g>
<g>
</g>
<g>
</g>
<g>
</g>
<g>
</g>
<g>
</g>
<g>
</g>
<g>
</g>
<g>
</g>
<g>
</g>
<g>
</g>
<g>
</g>
<g>
</g>
<g>
</g>
</svg>
