<?xml version="1.0" encoding="iso-8859-1"?>
<!-- Generator: Adobe Illustrator 19.0.0, SVG Export Plug-In . SVG Version: 6.00 Build 0)  -->
<svg version="1.1" id="Layer_1" xmlns="http://www.w3.org/2000/svg" xmlns:xlink="http://www.w3.org/1999/xlink" x="0px" y="0px"
	 viewBox="0 0 512 512" style="enable-background:new 0 0 512 512;" xml:space="preserve">
<path style="fill:#145587;" d="M21.267,151.68H35.06c6.848,0,13.232-3.457,16.973-9.192l19.4-29.729
	c4.127-6.326,11.17-10.139,18.723-10.139h93.773c7.553,0,14.595,3.813,18.723,10.139l19.399,29.729
	c3.742,5.734,10.127,9.192,16.975,9.192h251.708c11.745,0,21.267,9.521,21.267,21.267V439.04c0,11.746-9.521,21.267-21.267,21.267
	H21.267C9.521,460.307,0,450.786,0,439.04V172.947C0,161.201,9.521,151.68,21.267,151.68z"/>
<path style="fill:#ACDFEA;" d="M321.945,12.478H126.684c-8.473,0-15.342,6.868-15.342,15.342v355.564
	c0,8.473,6.869,15.342,15.342,15.342h258.632c8.473,0,15.342-6.868,15.342-15.342V91.191L321.945,12.478z"/>
<path style="opacity:0.3;fill:#145587;enable-background:new    ;" d="M337.287,110.784h63.371V91.191l-78.712-59.118v63.37
	C321.945,103.916,328.814,110.784,337.287,110.784z"/>
<path style="fill:#1F84CE;" d="M337.287,91.191h63.371l-78.712-78.712v63.37C321.945,84.322,328.814,91.191,337.287,91.191z"/>
<g>
	<path style="fill:#FFFFFF;" d="M345.853,166.996H166.142c-4.652,0-8.421-3.769-8.421-8.421s3.769-8.421,8.421-8.421h179.712
		c4.652,0,8.421,3.769,8.421,8.421C354.274,163.227,350.504,166.996,345.853,166.996z"/>
	<path style="fill:#FFFFFF;" d="M345.853,214.019H166.142c-4.652,0-8.421-3.769-8.421-8.421s3.769-8.421,8.421-8.421h179.712
		c4.652,0,8.421,3.769,8.421,8.421C354.274,210.25,350.504,214.019,345.853,214.019z"/>
</g>
<rect y="214.198" style="opacity:0.2;fill:#145587;enable-background:new    ;" width="512" height="110.787"/>
<path style="fill:#89BBE4;" d="M21.267,233.583h144.547c7.245,0,14.261-2.548,19.818-7.197l33.817-28.294
	c5.557-4.65,12.572-7.197,19.818-7.197h251.467c11.745,0,21.267,9.521,21.267,21.267v266.093c0,11.746-9.521,21.267-21.267,21.267
	H21.267C9.521,499.522,0,490.001,0,478.255V254.85C0,243.105,9.521,233.583,21.267,233.583z"/>
<rect y="447.394" style="fill:#F9C526;" width="512" height="16.842"/>
<g>
</g>
<g>
</g>
<g>
</g>
<g>
</g>
<g>
</g>
<g>
</g>
<g>
</g>
<g>
</g>
<g>
</g>
<g>
</g>
<g>
</g>
<g>
</g>
<g>
</g>
<g>
</g>
<g>
</g>
</svg>
